<?xml version="1.0" encoding="UTF-8"?>
<svg xmlns="http://www.w3.org/2000/svg" width="32" height="32" viewBox="0 0 32 32">
  <path d="M16,16 L14.173,2.120 A14,14 0 0,1 17.827,2.120 Z" fill="#f5c842"/>
  <path d="M16,16 L17.827,2.120 A14,14 0 0,1 21.358,3.066 Z" fill="#f0953a"/>
  <path d="M16,16 L21.358,3.066 A14,14 0 0,1 24.523,4.893 Z" fill="#eb6133"/>
  <path d="M16,16 L24.523,4.893 A14,14 0 0,1 27.107,7.477 Z" fill="#e52d2d"/>
  <path d="M16,16 L27.107,7.477 A14,14 0 0,1 28.934,10.642 Z" fill="#df2755"/>
  <path d="M16,16 L28.934,10.642 A14,14 0 0,1 29.880,14.173 Z" fill="#d5257d"/>
  <path d="M16,16 L29.880,14.173 A14,14 0 0,1 29.880,17.827 Z" fill="#c5289e"/>
  <path d="M16,16 L29.880,17.827 A14,14 0 0,1 28.934,21.358 Z" fill="#b72ab7"/>
  <path d="M16,16 L28.934,21.358 A14,14 0 0,1 27.107,24.523 Z" fill="#892ca9"/>
  <path d="M16,16 L27.107,24.523 A14,14 0 0,1 24.523,27.107 Z" fill="#642d9b"/>
  <path d="M16,16 L24.523,27.107 A14,14 0 0,1 21.358,28.934 Z" fill="#462e8e"/>
  <path d="M16,16 L21.358,28.934 A14,14 0 0,1 17.827,29.880 Z" fill="#2f2f81"/>
  <path d="M16,16 L17.827,29.880 A14,14 0 0,1 14.173,29.880 Z" fill="#2f4075"/>
  <path d="M16,16 L14.173,29.880 A14,14 0 0,1 10.642,28.934 Z" fill="#2f5881"/>
  <path d="M16,16 L10.642,28.934 A14,14 0 0,1 7.477,27.107 Z" fill="#2e768e"/>
  <path d="M16,16 L7.477,27.107 A14,14 0 0,1 4.893,24.523 Z" fill="#2d9b9b"/>
  <path d="M16,16 L4.893,24.523 A14,14 0 0,1 3.066,21.358 Z" fill="#2ca989"/>
  <path d="M16,16 L3.066,21.358 A14,14 0 0,1 2.120,17.827 Z" fill="#2ab770"/>
  <path d="M16,16 L2.120,17.827 A14,14 0 0,1 2.120,14.173 Z" fill="#28c54f"/>
  <path d="M16,16 L2.120,14.173 A14,14 0 0,1 3.066,10.642 Z" fill="#25d525"/>
  <path d="M16,16 L3.066,10.642 A14,14 0 0,1 4.893,7.477 Z" fill="#55df27"/>
  <path d="M16,16 L4.893,7.477 A14,14 0 0,1 7.477,4.893 Z" fill="#89e52d"/>
  <path d="M16,16 L7.477,4.893 A14,14 0 0,1 10.642,3.066 Z" fill="#bdeb33"/>
  <path d="M16,16 L10.642,3.066 A14,14 0 0,1 14.173,2.120 Z" fill="#f0f03a"/>
  <circle cx="16" cy="16" r="14" fill="none" stroke="#0008" stroke-width="0.5"/>
</svg>
